<?xml version="1.0" encoding="UTF-8" standalone="no"?>
<svg width="20px" height="20px" viewBox="0 0 20 20" version="1.1" xmlns="http://www.w3.org/2000/svg" xmlns:xlink="http://www.w3.org/1999/xlink" xmlns:sketch="http://www.bohemiancoding.com/sketch/ns">
    <!-- Generator: Sketch 3.0.4 (8054) - http://www.bohemiancoding.com/sketch -->
    <title>add 2</title>
    <desc>Created with Sketch.</desc>
    <defs></defs>
    <g id="Page-1" stroke="none" stroke-width="1" fill="none" fill-rule="evenodd" sketch:type="MSPage">
        <g id="add-2" sketch:type="MSArtboardGroup" fill="#FDFDFD">
            <path d="M17.5,9 L11,9 L11,2.5 C11,2.225 10.776,2 10.5,2 L9.5,2 C9.225,2 9,2.225 9,2.5 L9,9 L2.5,9 C2.224,9 2,9.224 2,9.5 L2,10.5 C2,10.776 2.224,11 2.5,11 L9,11 L9,17.5 C9,17.776 9.225,18 9.5,18 L10.5,18 C10.776,18 11,17.776 11,17.5 L11,11 L17.5,11 C17.776,11 18,10.776 18,10.5 L18,9.5 C18,9.224 17.776,9 17.5,9" id="Imported-Layers" sketch:type="MSShapeGroup"></path>
        </g>
    </g>
</svg>