<?xml version="1.0" encoding="UTF-8" standalone="no"?>
<svg width="20px" height="20px" viewBox="0 0 20 20" version="1.1" xmlns="http://www.w3.org/2000/svg" xmlns:xlink="http://www.w3.org/1999/xlink" xmlns:sketch="http://www.bohemiancoding.com/sketch/ns">
    <!-- Generator: Sketch 3.0.4 (8054) - http://www.bohemiancoding.com/sketch -->
    <title>audio</title>
    <desc>Created with Sketch.</desc>
    <defs>
        <path id="path-1" d="M0,0.413 L13.771,0.413 L13.771,16 L0,16 L0,0.413 Z"></path>
    </defs>
    <g id="Page-1" stroke="none" stroke-width="1" fill="none" fill-rule="evenodd" sketch:type="MSPage">
        <g id="audio" sketch:type="MSArtboardGroup">
            <g id="Imported-Layers" sketch:type="MSLayerGroup" transform="translate(3.114750, 2.206550)">
                <mask id="mask-2" sketch:name="Clip 2" fill="white">
                    <use xlink:href="#path-1"></use>
                </mask>
                <g id="Clip-2"></g>
                <path d="M13.7705,0.4238 C8.4265,0.2498 4.0485,2.1758 4.0485,2.1758 L4.0455,11.9508 C3.5015,11.7388 2.8395,11.6898 2.1675,11.8498 C0.7195,12.1938 -0.2295,13.3798 0.0485,14.4998 C0.3275,15.6198 1.7275,16.2498 3.1765,15.9058 C4.5425,15.5818 5.4635,14.5078 5.3315,13.4468 L5.3315,6.1448 C5.3315,6.1448 8.4265,5.0868 12.4415,4.8208 L12.4415,10.2538 C11.9035,10.0528 11.2535,10.0058 10.5945,10.1628 C9.1455,10.5068 8.1965,11.6938 8.4755,12.8148 C8.7535,13.9348 10.1535,14.5638 11.6025,14.2198 C12.8685,13.9198 13.7515,12.9768 13.7705,11.9958 L13.7705,11.9968 L13.7705,0.4238 Z" id="Fill-1" fill="#000000" sketch:type="MSShapeGroup" mask="url(#mask-2)"></path>
            </g>
        </g>
    </g>
</svg>