<?xml version="1.0" encoding="UTF-8" standalone="no"?>
<svg width="20px" height="20px" viewBox="0 0 20 20" version="1.1" xmlns="http://www.w3.org/2000/svg" xmlns:xlink="http://www.w3.org/1999/xlink" xmlns:sketch="http://www.bohemiancoding.com/sketch/ns">
    <!-- Generator: Sketch 3.0.4 (8054) - http://www.bohemiancoding.com/sketch -->
    <title>bold 2</title>
    <desc>Created with Sketch.</desc>
    <defs>
        <path id="path-1" d="M0,0 L12,0 L12,13 L0,13"></path>
    </defs>
    <g id="Page-1" stroke="none" stroke-width="1" fill="none" fill-rule="evenodd" sketch:type="MSPage">
        <g id="bold-2" sketch:type="MSArtboardGroup">
            <g id="Imported-Layers" sketch:type="MSLayerGroup" transform="translate(4.000000, 4.000000)">
                <mask id="mask-2" sketch:name="Clip 2" fill="white">
                    <use xlink:href="#path-1"></use>
                </mask>
                <g id="Clip-2"></g>
                <path d="M7.959,11.4326 C7.531,11.9216 6.979,12.1656 6.297,12.1656 C5.913,12.1656 5.587,12.0876 5.317,11.9326 C5.049,11.7766 4.889,11.5856 4.836,11.3596 L4.836,6.5956 C4.922,6.5896 5.056,6.5816 5.236,6.5736 C5.416,6.5646 5.561,6.5596 5.67,6.5596 C6.615,6.5596 7.338,6.8006 7.842,7.2856 C8.346,7.7676 8.6,8.4626 8.6,9.3676 C8.6,10.2546 8.385,10.9436 7.959,11.4326 M7.336,4.9976 C6.895,5.4586 6.211,5.6896 5.283,5.6896 L4.836,5.6896 L4.836,0.8706 C4.963,0.8646 5.113,0.8566 5.287,0.8476 C5.463,0.8376 5.604,0.8336 5.713,0.8336 C6.475,0.8336 7.045,1.0356 7.426,1.4386 C7.807,1.8416 7.998,2.4036 7.998,3.1236 C7.998,3.9116 7.777,4.5366 7.336,4.9976 M9.51,6.4086 C9.027,6.2466 8.564,6.1416 8.117,6.0926 L8.117,5.9176 C8.564,5.8086 8.982,5.6706 9.371,5.5056 C9.762,5.3416 10.096,5.1456 10.377,4.9196 C10.686,4.6756 10.924,4.3866 11.09,4.0536 C11.256,3.7206 11.338,3.3346 11.338,2.8956 C11.338,1.9426 10.969,1.2216 10.23,0.7326 C9.492,0.2446 8.289,-0.0004 6.623,-0.0004 L0,-0.0004 L0,0.7146 C0.178,0.7446 0.385,0.7866 0.619,0.8376 C0.854,0.8906 1.061,0.9556 1.237,1.0356 C1.479,1.1456 1.629,1.2736 1.693,1.4196 C1.756,1.5666 1.787,1.7496 1.787,1.9696 L1.787,11.1306 C1.787,11.3696 1.748,11.5636 1.672,11.7126 C1.594,11.8636 1.449,11.9836 1.237,12.0746 C1.129,12.1236 0.939,12.1656 0.67,12.2036 C0.401,12.2406 0.178,12.2676 0,12.2856 L0,12.9996 L6.332,12.9996 C7.242,12.9996 8.033,12.9426 8.707,12.8266 C9.379,12.7096 9.973,12.5116 10.488,12.2306 C10.975,11.9686 11.35,11.6096 11.609,11.1546 C11.869,10.6996 12,10.1416 12,9.4826 C12,8.9326 11.885,8.4546 11.656,8.0486 C11.428,7.6426 11.129,7.3046 10.764,7.0366 C10.408,6.7796 9.99,6.5706 9.51,6.4086" id="Fill-1" fill="#FDFDFD" sketch:type="MSShapeGroup" mask="url(#mask-2)"></path>
            </g>
        </g>
    </g>
</svg>