<?xml version="1.0" encoding="UTF-8" standalone="no"?>
<svg width="20px" height="20px" viewBox="0 0 20 20" version="1.1" xmlns="http://www.w3.org/2000/svg" xmlns:xlink="http://www.w3.org/1999/xlink" xmlns:sketch="http://www.bohemiancoding.com/sketch/ns">
    <!-- Generator: Sketch 3.0.4 (8054) - http://www.bohemiancoding.com/sketch -->
    <title>break</title>
    <desc>Created with Sketch.</desc>
    <defs></defs>
    <g id="Page-1" stroke="none" stroke-width="1" fill="none" fill-rule="evenodd" sketch:type="MSPage">
        <g id="break" sketch:type="MSArtboardGroup" fill="#000000">
            <path d="M3,7.001 L18,7.001 L18,3 L3,3 L3,7.001 Z M15,11.001 L18.001,11.001 L18.001,10.001 L15,10.001 L15,11.001 Z M11,11.001 L14,11.001 L14,10.001 L11,10.001 L11,11.001 Z M7,11.001 L10.001,11.001 L10.001,10.001 L7,10.001 L7,11.001 Z M3,11.001 L6,11.001 L6,10.001 L3,10.001 L3,11.001 Z M3,18.001 L18,18.001 L18,14.001 L3,14.001 L3,18.001 Z" id="Imported-Layers" sketch:type="MSShapeGroup"></path>
        </g>
    </g>
</svg>