<?xml version="1.0" encoding="UTF-8" standalone="no"?>
<svg width="20px" height="20px" viewBox="0 0 20 20" version="1.1" xmlns="http://www.w3.org/2000/svg" xmlns:xlink="http://www.w3.org/1999/xlink" xmlns:sketch="http://www.bohemiancoding.com/sketch/ns">
    <!-- Generator: Sketch 3.0.4 (8054) - http://www.bohemiancoding.com/sketch -->
    <title>broken-link 2</title>
    <desc>Created with Sketch.</desc>
    <defs>
        <path id="path-1" d="M0,0.408 L14.592,0.408 L14.592,16 L0,16 L0,0.408 Z"></path>
    </defs>
    <g id="Page-1" stroke="none" stroke-width="1" fill="none" fill-rule="evenodd" sketch:type="MSPage">
        <g id="broken-link-2" sketch:type="MSArtboardGroup">
            <g id="Imported-Layers" sketch:type="MSLayerGroup" transform="translate(2.703850, 2.204100)">
                <mask id="mask-2" sketch:name="Clip 2" fill="white">
                    <use xlink:href="#path-1"></use>
                </mask>
                <g id="Clip-2"></g>
                <path d="M14.5923,10.5889 L14.0033,9.9999 L11.5923,12.4109 L9.1813,9.9999 L8.5923,10.5889 L11.0043,12.9999 L8.5923,15.4119 L9.1813,15.9999 L11.5923,13.5889 L14.0033,15.9999 L14.5923,15.4119 L12.1803,12.9999 L14.5923,10.5889 Z M9.2893,8.1409 L9.8873,7.5039 C9.6823,6.9509 9.3713,6.4329 8.9513,5.9859 C8.5333,5.5389 8.0473,5.2069 7.5293,4.9879 C7.4343,4.9479 7.3373,4.9119 7.2403,4.8809 C7.1583,4.8539 7.0763,4.8279 6.9943,4.8069 C6.9883,4.8049 6.9833,4.8029 6.9773,4.8019 C6.9623,4.7979 6.9473,4.7949 6.9323,4.7909 C6.0733,4.5799 5.1643,4.6609 4.3443,5.0329 C4.2423,5.0789 4.1433,5.1279 4.0443,5.1829 C4.0393,5.1859 4.0333,5.1889 4.0293,5.1919 C4.0123,5.2009 3.9963,5.2109 3.9813,5.2209 C3.9393,5.2439 3.8973,5.2689 3.8563,5.2949 L3.8553,5.2949 C3.5573,5.4829 3.2773,5.7129 3.0213,5.9859 L1.2293,7.8979 C-0.4097,9.6449 -0.4097,12.4779 1.2293,14.2249 C2.8663,15.9719 5.5223,15.9719 7.1603,14.2249 L7.2293,14.1519 C6.8303,13.5289 6.5923,12.7939 6.5923,11.9999 C6.5923,11.9429 6.6063,11.8919 6.6093,11.8349 L5.6723,12.8339 C4.8053,13.7589 3.3993,13.7589 2.5313,12.8339 C1.6653,11.9089 1.6653,10.4099 2.5313,9.4849 L3.6583,8.2829 L3.8913,8.0349 L4.1163,7.7949 L4.1173,7.7939 L4.4923,7.3939 C4.8843,6.9769 5.3853,6.7479 5.8973,6.7069 C6.0043,6.6959 6.0973,6.6959 6.1763,6.6989 C6.3503,6.7069 6.4493,6.7359 6.4493,6.7359 L6.4513,6.7359 C6.8833,6.8179 7.2983,7.0369 7.6323,7.3939 C7.9573,7.7399 8.1603,8.1679 8.2423,8.6149 C8.2443,8.6289 8.2463,8.6419 8.2483,8.6539 C8.3603,8.6449 8.4673,8.5979 8.5763,8.5639 C8.7363,8.4699 8.8953,8.3749 9.0693,8.3039 C9.1423,8.2479 9.2233,8.2109 9.2893,8.1409 L9.2893,8.1409 Z M7.3743,4.3199 L7.5213,4.1639 L8.5093,3.1099 C9.3763,2.1849 10.7813,2.1859 11.6493,3.1099 C12.5163,4.0339 12.5163,5.5339 11.6493,6.4589 L10.5223,7.6599 L10.2903,7.9079 L10.1633,8.0429 C10.3063,8.0269 10.4453,7.9999 10.5923,7.9999 C11.2933,7.9999 11.9423,8.1959 12.5153,8.5129 L12.9523,8.0459 C14.5903,6.2989 14.5903,3.4669 12.9523,1.7189 C11.3153,-0.0281 8.6583,-0.0281 7.0223,1.7189 L5.2293,3.6309 C5.0743,3.7959 4.9343,3.9709 4.8083,4.1529 C4.7803,4.1929 4.7563,4.2349 4.7303,4.2759 C5.5963,4.0259 6.5153,4.0389 7.3743,4.3199 L7.3743,4.3199 Z M6.5493,8.5499 C6.2243,8.2029 6.0203,7.7759 5.9393,7.3279 C5.9373,7.3159 5.9363,7.3029 5.9343,7.2889 C5.5533,7.3219 5.1823,7.4929 4.8913,7.8029 L4.2953,8.4399 C4.4983,8.9919 4.8093,9.5109 5.2293,9.9579 C5.6483,10.4049 6.1333,10.7369 6.6523,10.9549 C6.6803,10.9669 6.7093,10.9759 6.7383,10.9869 C6.9163,10.3079 7.2573,9.6959 7.7333,9.2089 L7.7313,9.2079 L7.7313,9.2069 C7.2973,9.1249 6.8833,8.9059 6.5493,8.5499 L6.5493,8.5499 Z" id="Fill-1" fill="#FDFDFD" sketch:type="MSShapeGroup" mask="url(#mask-2)"></path>
            </g>
        </g>
    </g>
</svg>