<?xml version="1.0" encoding="UTF-8" standalone="no"?>
<svg width="20px" height="20px" viewBox="0 0 20 20" version="1.1" xmlns="http://www.w3.org/2000/svg" xmlns:xlink="http://www.w3.org/1999/xlink" xmlns:sketch="http://www.bohemiancoding.com/sketch/ns">
    <!-- Generator: Sketch 3.0.4 (8054) - http://www.bohemiancoding.com/sketch -->
    <title>color 2</title>
    <desc>Created with Sketch.</desc>
    <defs>
        <path id="path-1" d="M0,0.176 L15.822,0.176 L15.822,16 L0,16 L0,0.176 Z"></path>
    </defs>
    <g id="Page-1" stroke="none" stroke-width="1" fill="none" fill-rule="evenodd" sketch:type="MSPage">
        <g id="color-2" sketch:type="MSArtboardGroup">
            <g id="Imported-Layers" sketch:type="MSLayerGroup" transform="translate(2.088850, 2.087900)">
                <mask id="mask-2" sketch:name="Clip 2" fill="white">
                    <use xlink:href="#path-1"></use>
                </mask>
                <g id="Clip-2"></g>
                <path d="M15.3447,0.6709 C14.7117,0.0149 13.8057,0.1999 13.8057,0.1999 C13.8057,0.1999 11.6497,1.6159 10.6097,2.6569 C9.6707,3.5969 10.0557,5.2019 9.3977,5.2119 C8.7397,5.2259 6.7787,3.2629 6.3427,3.6979 C5.9087,4.1339 5.6707,4.3719 5.6707,4.3719 L11.6157,10.3249 C11.6157,10.3249 11.6937,10.2469 12.2877,9.6509 C12.8827,9.0559 10.8297,7.4309 10.8487,6.7019 C10.8657,5.9719 12.4997,6.1729 13.3457,5.3249 C14.1927,4.4779 15.7537,2.4209 15.7817,2.1789 C15.8077,1.9389 15.9787,1.3269 15.3447,0.6709 L15.3447,0.6709 Z M4.5437,5.5229 L10.4897,11.4759 L11.3207,10.6439 L5.3757,4.6909 L4.5437,5.5229 Z M0.1827,9.8679 C0.1827,9.8679 0.0237,10.0339 0.0007,10.3249 C-0.0213,10.6139 0.2307,10.8229 0.2307,10.8229 L0.6497,11.2429 L2.2707,9.9209 L0.8907,11.4839 L3.5737,14.1709 L6.8547,11.1439 L3.8087,14.4069 L5.2707,15.8699 C5.2707,15.8699 5.3997,16.0149 5.6937,15.9989 C5.9877,15.9839 6.0967,15.8529 6.0967,15.8529 L10.0827,11.8599 L4.1387,5.9069 L0.1827,9.8679 Z" id="Fill-1" fill="#FDFDFD" sketch:type="MSShapeGroup" mask="url(#mask-2)"></path>
            </g>
        </g>
    </g>
</svg>