<?xml version="1.0" encoding="UTF-8" standalone="no"?>
<svg width="20px" height="20px" viewBox="0 0 20 20" version="1.1" xmlns="http://www.w3.org/2000/svg" xmlns:xlink="http://www.w3.org/1999/xlink" xmlns:sketch="http://www.bohemiancoding.com/sketch/ns">
    <!-- Generator: Sketch 3.0.4 (8054) - http://www.bohemiancoding.com/sketch -->
    <title>doted-list 2</title>
    <desc>Created with Sketch.</desc>
    <defs></defs>
    <g id="Page-1" stroke="none" stroke-width="1" fill="none" fill-rule="evenodd" sketch:type="MSPage">
        <g id="doted-list-2" sketch:type="MSArtboardGroup" fill="#FDFDFD">
            <path d="M7,5.001 L18,5.001 L18,3 L7,3 L7,5.001 Z M2,5.001 L4,5.001 L4,3 L2,3 L2,5.001 Z M7,9.001 L18,9.001 L18,7.001 L7,7.001 L7,9.001 Z M2,9.001 L4,9.001 L4,7.001 L2,7.001 L2,9.001 Z M7,13.001 L18,13.001 L18,11 L7,11 L7,13.001 Z M2,13.001 L4,13.001 L4,11 L2,11 L2,13.001 Z M7,17.001 L18,17.001 L18,15.001 L7,15.001 L7,17.001 Z M2,17.001 L4,17.001 L4,15.001 L2,15.001 L2,17.001 Z" id="Imported-Layers" sketch:type="MSShapeGroup"></path>
        </g>
    </g>
</svg>