<?xml version="1.0" encoding="UTF-8" standalone="no"?>
<svg width="20px" height="20px" viewBox="0 0 20 20" version="1.1" xmlns="http://www.w3.org/2000/svg" xmlns:xlink="http://www.w3.org/1999/xlink" xmlns:sketch="http://www.bohemiancoding.com/sketch/ns">
    <!-- Generator: Sketch 3.0.4 (8054) - http://www.bohemiancoding.com/sketch -->
    <title>doted-list</title>
    <desc>Created with Sketch.</desc>
    <defs></defs>
    <g id="Page-1" stroke="none" stroke-width="1" fill="none" fill-rule="evenodd" sketch:type="MSPage">
        <g id="doted-list" sketch:type="MSArtboardGroup" fill="#000000">
            <g id="Imported-PDF" sketch:type="MSLayerGroup" transform="translate(2.000000, 3.000000)">
                <path d="M5,2.001 L16,2.001 L16,0 L5,0 L5,2.001 Z M0,2.001 L2,2.001 L2,0 L0,0 L0,2.001 Z M5,6.001 L16,6.001 L16,4.001 L5,4.001 L5,6.001 Z M0,6.001 L2,6.001 L2,4.001 L0,4.001 L0,6.001 Z M5,10.001 L16,10.001 L16,8 L5,8 L5,10.001 Z M0,10.001 L2,10.001 L2,8 L0,8 L0,10.001 Z M5,14.001 L16,14.001 L16,12.001 L5,12.001 L5,14.001 Z M0,14.001 L2,14.001 L2,12.001 L0,12.001 L0,14.001 Z" id="Page-1" sketch:type="MSShapeGroup"></path>
            </g>
        </g>
    </g>
</svg>