<?xml version="1.0" encoding="UTF-8" standalone="no"?>
<svg width="20px" height="20px" viewBox="0 0 20 20" version="1.1" xmlns="http://www.w3.org/2000/svg" xmlns:xlink="http://www.w3.org/1999/xlink" xmlns:sketch="http://www.bohemiancoding.com/sketch/ns">
    <!-- Generator: Sketch 3.0.4 (8054) - http://www.bohemiancoding.com/sketch -->
    <title>edit</title>
    <desc>Created with Sketch.</desc>
    <defs></defs>
    <g id="Page-1" stroke="none" stroke-width="1" fill="none" fill-rule="evenodd" sketch:type="MSPage">
        <g id="edit" sketch:type="MSArtboardGroup" fill="#000000">
            <g id="Imported-PDF" sketch:type="MSLayerGroup" transform="translate(3.000000, 3.000000)">
                <path d="M13.074,1.43875 L12.404,0.73275 C11.478,-0.24425 9.978,-0.24425 9.053,0.73275 L8.718,1.08575 L12.739,5.32775 L13.074,4.97475 C14,3.99875 14,2.41575 13.074,1.43875 L13.074,1.43875 Z M0,14.52075 L4.693,13.81375 L0.672,9.57075 L0,14.52075 Z M3.353,9.57075 L2.683,8.86375 L8.047,3.20775 L8.717,3.91475 L3.353,9.57075 Z M8.047,1.79275 L1.342,8.86375 L5.365,13.10675 L12.261,5.83375 L12.068,6.03575 L8.047,1.79275 Z" id="Page-1" sketch:type="MSShapeGroup"></path>
                <g id="Page-1" sketch:type="MSShapeGroup">
                    <path d="M13.074,1.43875 L12.404,0.73275 C11.478,-0.24425 9.978,-0.24425 9.053,0.73275 L8.718,1.08575 L12.739,5.32775 L13.074,4.97475 C14,3.99875 14,2.41575 13.074,1.43875 L13.074,1.43875 Z M0,14.52075 L4.693,13.81375 L0.672,9.57075 L0,14.52075 Z M3.353,9.57075 L2.683,8.86375 L8.047,3.20775 L8.717,3.91475 L3.353,9.57075 Z M8.047,1.79275 L1.342,8.86375 L5.365,13.10675 L12.261,5.83375 L12.068,6.03575 L8.047,1.79275 Z"></path>
                </g>
            </g>
        </g>
    </g>
</svg>