<?xml version="1.0" encoding="UTF-8" standalone="no"?>
<svg width="20px" height="20px" viewBox="0 0 20 20" version="1.1" xmlns="http://www.w3.org/2000/svg" xmlns:xlink="http://www.w3.org/1999/xlink" xmlns:sketch="http://www.bohemiancoding.com/sketch/ns">
    <!-- Generator: Sketch 3.0.4 (8054) - http://www.bohemiancoding.com/sketch -->
    <title>font-family 2</title>
    <desc>Created with Sketch.</desc>
    <defs>
        <path id="path-1" d="M0,0 L16,0 L16,8 L0,8 L0,0 Z"></path>
    </defs>
    <g id="Page-1" stroke="none" stroke-width="1" fill="none" fill-rule="evenodd" sketch:type="MSPage">
        <g id="font-family-2" sketch:type="MSArtboardGroup">
            <g id="Imported-Layers" sketch:type="MSLayerGroup" transform="translate(2.000000, 6.000000)">
                <mask id="mask-2" sketch:name="Clip 2" fill="white">
                    <use xlink:href="#path-1"></use>
                </mask>
                <g id="Clip-2"></g>
                <path d="M13.1523,6.7266 C13.0503,6.8466 12.9313,6.9476 12.7963,7.0296 C12.6603,7.1116 12.4883,7.1516 12.2793,7.1516 C12.0803,7.1516 11.9143,7.0876 11.7793,6.9606 C11.6433,6.8336 11.5763,6.6276 11.5763,6.3446 C11.5763,6.1306 11.6153,5.9446 11.6953,5.7866 C11.7753,5.6276 11.8863,5.4976 12.0273,5.3966 C12.1603,5.2986 12.3323,5.2056 12.5413,5.1156 C12.7513,5.0266 12.9633,4.9476 13.1753,4.8786 L13.1523,6.7266 Z M15.6213,7.3066 C15.4823,7.3006 15.3813,7.2846 15.3163,7.2546 C15.2113,7.2076 15.1313,7.1366 15.0803,7.0426 C15.0293,6.9496 15.0043,6.8206 15.0043,6.6566 C15.0043,6.4796 15.0113,6.1096 15.0293,5.5466 C15.0473,4.9856 15.0543,4.4996 15.0543,4.0896 C15.0543,3.7026 14.9853,3.3876 14.8473,3.1466 C14.7093,2.9056 14.5213,2.7206 14.2863,2.5946 C14.0393,2.4636 13.7613,2.3776 13.4553,2.3356 C13.1473,2.2946 12.8093,2.2736 12.4413,2.2736 C12.1753,2.2736 11.8863,2.3036 11.5763,2.3636 C11.2643,2.4226 10.9893,2.5076 10.7503,2.6166 C10.5073,2.7206 10.3003,2.8546 10.1323,3.0156 C9.9633,3.1766 9.8793,3.3596 9.8793,3.5626 C9.8793,3.7976 9.9613,3.9896 10.1253,4.1356 C10.2883,4.2836 10.5293,4.3566 10.8493,4.3566 C11.0743,4.3566 11.2403,4.3366 11.3493,4.2966 C11.4583,4.2566 11.5563,4.2006 11.6433,4.1276 C11.7093,4.0736 11.7573,3.9996 11.7923,3.9076 C11.8263,3.8156 11.8433,3.7386 11.8433,3.6766 C11.8433,3.5386 11.8163,3.3956 11.7633,3.2476 C11.7103,3.0986 11.6773,2.9876 11.6663,2.9146 C11.7343,2.8686 11.8243,2.8226 11.9373,2.7766 C12.0483,2.7316 12.1883,2.7086 12.3553,2.7086 C12.5413,2.7086 12.6913,2.7476 12.8053,2.8286 C12.9203,2.9086 13.0033,3.0056 13.0563,3.1226 C13.1053,3.2236 13.1373,3.3486 13.1523,3.4976 C13.1683,3.6456 13.1753,3.7656 13.1753,3.8556 L13.1753,4.3776 C12.9553,4.4796 12.6053,4.5946 12.1273,4.7236 C11.6473,4.8536 11.2363,4.9776 10.8943,5.0976 C10.7153,5.1626 10.5503,5.2336 10.4013,5.3096 C10.2513,5.3856 10.1193,5.4816 10.0053,5.5976 C9.8793,5.7256 9.7833,5.8716 9.7143,6.0376 C9.6453,6.2026 9.6113,6.4026 9.6113,6.6386 C9.6113,7.0486 9.7673,7.3786 10.0793,7.6266 C10.3903,7.8756 10.7673,7.9996 11.2093,7.9996 C11.5053,7.9996 11.7363,7.9806 11.9013,7.9406 C12.0663,7.9006 12.2383,7.8406 12.4183,7.7606 C12.5543,7.6996 12.6823,7.6246 12.8023,7.5386 C12.9223,7.4516 13.0473,7.3456 13.1753,7.2226 L13.2103,7.2226 C13.2893,7.4686 13.4393,7.6586 13.6583,7.7906 C13.8793,7.9226 14.2203,7.9896 14.6873,7.9896 C14.9413,7.9896 15.1813,7.9596 15.4093,7.9026 C15.6363,7.8436 15.8343,7.7806 16.0003,7.7116 L16.0003,7.3146 C15.8863,7.3146 15.7593,7.3126 15.6213,7.3066 L15.6213,7.3066 Z M2.9133,4.7046 L4.0653,1.9146 L5.2343,4.7046 L2.9133,4.7046 Z M8.7283,7.2166 C8.5883,7.1366 8.4803,7.0526 8.4043,6.9636 C8.3283,6.8746 8.2653,6.7766 8.2163,6.6676 C7.9203,6.0006 7.5613,5.1596 7.1403,4.1446 C6.7183,3.1286 6.1363,1.7476 5.3923,-0.0004 L4.2543,-0.0004 C3.7183,1.2326 3.2293,2.3606 2.7873,3.3826 C2.3453,4.4056 1.9043,5.4256 1.4633,6.4456 C1.3903,6.6196 1.3003,6.7696 1.1933,6.8966 C1.0843,7.0236 0.9533,7.1296 0.7973,7.2166 C0.7063,7.2716 0.5823,7.3136 0.4233,7.3446 C0.2663,7.3756 0.1253,7.3946 0.0003,7.4026 L0.0003,7.8266 L3.3143,7.8266 L3.3143,7.4026 C2.8843,7.3656 2.5793,7.3066 2.3943,7.2256 C2.2113,7.1436 2.1193,7.0446 2.1193,6.9286 C2.1193,6.8926 2.1263,6.8296 2.1383,6.7386 C2.1523,6.6476 2.1953,6.5006 2.2663,6.2976 C2.3233,6.1416 2.3903,5.9646 2.4673,5.7646 C2.5453,5.5656 2.6153,5.3916 2.6793,5.2436 L5.4683,5.2436 L6.1583,6.8416 C6.1853,6.9036 6.2013,6.9526 6.2073,6.9886 C6.2133,7.0246 6.2153,7.0576 6.2153,7.0856 C6.2153,7.1696 6.0773,7.2406 5.8003,7.2956 C5.5243,7.3516 5.2833,7.3876 5.0793,7.4026 L5.0793,7.8266 L9.4803,7.8266 L9.4803,7.4026 C9.3673,7.3946 9.2393,7.3766 9.0993,7.3476 C8.9593,7.3186 8.8353,7.2756 8.7283,7.2166 L8.7283,7.2166 Z" id="Fill-1" fill="#FDFDFD" sketch:type="MSShapeGroup" mask="url(#mask-2)"></path>
            </g>
        </g>
    </g>
</svg>