<?xml version="1.0" encoding="UTF-8" standalone="no"?>
<svg width="20px" height="20px" viewBox="0 0 20 20" version="1.1" xmlns="http://www.w3.org/2000/svg" xmlns:xlink="http://www.w3.org/1999/xlink" xmlns:sketch="http://www.bohemiancoding.com/sketch/ns">
    <!-- Generator: Sketch 3.0.4 (8054) - http://www.bohemiancoding.com/sketch -->
    <title>font-size 2</title>
    <desc>Created with Sketch.</desc>
    <defs></defs>
    <g id="Page-1" stroke="none" stroke-width="1" fill="none" fill-rule="evenodd" sketch:type="MSPage">
        <g id="font-size-2" sketch:type="MSArtboardGroup" fill="#FDFDFD">
            <path d="M16,13 L18,10 L14,10 L16,13 Z M16,5 L14,8 L18,8 L16,5 Z M6.302,11.612 L8.004,7.691 L9.73,11.612 L6.302,11.612 Z M14.891,15.145 C14.683,15.032 14.523,14.913 14.411,14.789 C14.299,14.664 14.206,14.525 14.133,14.372 C13.696,13.435 13.166,12.252 12.544,10.825 C11.922,9.398 11.062,7.457 9.963,5 L8.281,5 C7.49,6.732 6.77,8.317 6.115,9.755 C5.463,11.191 4.811,12.627 4.161,14.059 C4.055,14.303 3.922,14.515 3.762,14.693 C3.602,14.871 3.407,15.021 3.178,15.145 C3.043,15.221 2.859,15.28 2.627,15.323 C2.395,15.367 2.186,15.394 2,15.404 L2,16 L6.894,16 L6.894,15.404 C6.261,15.353 5.809,15.271 5.537,15.155 C5.266,15.041 5.129,14.902 5.129,14.738 C5.129,14.688 5.139,14.599 5.158,14.471 C5.179,14.344 5.241,14.138 5.348,13.853 C5.431,13.633 5.529,13.383 5.645,13.104 C5.758,12.823 5.863,12.578 5.957,12.369 L10.076,12.369 L11.095,14.616 C11.134,14.703 11.158,14.772 11.166,14.823 C11.174,14.874 11.179,14.92 11.179,14.961 C11.179,15.078 10.975,15.176 10.566,15.255 C10.158,15.334 9.803,15.384 9.5,15.404 L9.5,16 L16,16 L16,15.404 C15.832,15.394 15.645,15.368 15.437,15.327 C15.229,15.287 15.047,15.226 14.891,15.145 L14.891,15.145 Z" id="Imported-Layers" sketch:type="MSShapeGroup"></path>
        </g>
    </g>
</svg>