<?xml version="1.0" encoding="UTF-8" standalone="no"?>
<svg width="20px" height="20px" viewBox="0 0 20 20" version="1.1" xmlns="http://www.w3.org/2000/svg" xmlns:xlink="http://www.w3.org/1999/xlink" xmlns:sketch="http://www.bohemiancoding.com/sketch/ns">
    <!-- Generator: Sketch 3.0.4 (8054) - http://www.bohemiancoding.com/sketch -->
    <title>full-screen 2</title>
    <desc>Created with Sketch.</desc>
    <defs></defs>
    <g id="Page-1" stroke="none" stroke-width="1" fill="none" fill-rule="evenodd" sketch:type="MSPage">
        <g id="full-screen-2" sketch:type="MSArtboardGroup" fill="#FDFDFD">
            <path d="M11.333,7.333 C11.585,7.521 11.838,7.706 12.066,7.935 C12.294,8.162 12.478,8.417 12.667,8.667 L16.029,5.304 L17.362,6.638 L18,2 L13.362,2.638 L14.696,3.971 L11.333,7.333 Z M7.935,12.066 C7.706,11.838 7.523,11.584 7.333,11.334 L3.971,14.696 L2.638,13.362 L2,18 L6.638,17.363 L5.304,16.029 L8.667,12.667 C8.416,12.478 8.162,12.294 7.935,12.066 L7.935,12.066 Z M16.029,14.696 L12.667,11.334 C12.479,11.585 12.294,11.838 12.066,12.066 C11.838,12.294 11.584,12.478 11.333,12.667 L14.696,16.029 L13.362,17.363 L18,18 L17.362,13.362 L16.029,14.696 Z M7.935,7.935 C8.162,7.706 8.416,7.523 8.667,7.333 L5.304,3.971 L6.638,2.638 L2,2 L2.638,6.638 L3.971,5.304 L7.333,8.667 C7.523,8.417 7.706,8.162 7.935,7.935 L7.935,7.935 Z" id="Imported-Layers" sketch:type="MSShapeGroup"></path>
        </g>
    </g>
</svg>