<?xml version="1.0" encoding="UTF-8" standalone="no"?>
<svg width="20px" height="20px" viewBox="0 0 20 20" version="1.1" xmlns="http://www.w3.org/2000/svg" xmlns:xlink="http://www.w3.org/1999/xlink" xmlns:sketch="http://www.bohemiancoding.com/sketch/ns">
    <!-- Generator: Sketch 3.0.4 (8054) - http://www.bohemiancoding.com/sketch -->
    <title>italic 2</title>
    <desc>Created with Sketch.</desc>
    <defs>
        <path id="path-1" d="M0,0 L8,0 L8,13 L0,13 L0,0 Z"></path>
    </defs>
    <g id="Page-1" stroke="none" stroke-width="1" fill="none" fill-rule="evenodd" sketch:type="MSPage">
        <g id="italic-2" sketch:type="MSArtboardGroup">
            <g id="Imported-Layers" sketch:type="MSLayerGroup" transform="translate(6.000000, 4.000000)">
                <mask id="mask-2" sketch:name="Clip 2" fill="white">
                    <use xlink:href="#path-1"></use>
                </mask>
                <g id="Clip-2"></g>
                <path d="M2.7109,0 L2.5879,0.604 C2.7089,0.617 2.8979,0.655 3.1529,0.719 C3.4099,0.783 3.6119,0.852 3.7619,0.926 C3.9099,0.999 4.0079,1.081 4.0549,1.173 C4.1019,1.265 4.1249,1.371 4.1249,1.493 C4.1249,1.549 4.1219,1.604 4.1169,1.658 C4.1109,1.713 4.1039,1.769 4.0919,1.823 L2.1069,11.333 C2.0689,11.547 1.9949,11.729 1.8849,11.878 C1.7739,12.027 1.6119,12.146 1.3969,12.23 C1.2749,12.279 1.0719,12.316 0.7849,12.341 C0.4979,12.365 0.2779,12.383 0.1239,12.396 L-0.0001,13 L5.2909,13 L5.4149,12.396 C5.2769,12.383 5.0669,12.348 4.7869,12.29 C4.5059,12.232 4.3239,12.182 4.2399,12.139 C4.0979,12.065 3.9979,11.98 3.9429,11.883 C3.8889,11.785 3.8599,11.666 3.8599,11.525 C3.8599,11.482 3.8629,11.434 3.8689,11.379 C3.8739,11.323 3.8829,11.275 3.8939,11.234 L5.8839,1.735 C5.9279,1.537 5.9999,1.355 6.0989,1.191 C6.1969,1.026 6.3629,0.904 6.5949,0.824 C6.7269,0.782 6.9309,0.736 7.2059,0.688 C7.4819,0.639 7.7049,0.611 7.8759,0.604 L7.9999,0 L2.7109,0 Z" id="Fill-1" fill="#FDFDFD" sketch:type="MSShapeGroup" mask="url(#mask-2)"></path>
            </g>
        </g>
    </g>
</svg>