<?xml version="1.0" encoding="UTF-8" standalone="no"?>
<svg width="20px" height="20px" viewBox="0 0 20 20" version="1.1" xmlns="http://www.w3.org/2000/svg" xmlns:xlink="http://www.w3.org/1999/xlink" xmlns:sketch="http://www.bohemiancoding.com/sketch/ns">
    <!-- Generator: Sketch 3.0.4 (8054) - http://www.bohemiancoding.com/sketch -->
    <title>link 2</title>
    <desc>Created with Sketch.</desc>
    <defs>
        <path id="path-1" d="M0,-0.127 L14.181,-0.127 L14.181,15 L0,15"></path>
    </defs>
    <g id="Page-1" stroke="none" stroke-width="1" fill="none" fill-rule="evenodd" sketch:type="MSPage">
        <g id="link-2" sketch:type="MSArtboardGroup">
            <g id="Imported-Layers" sketch:type="MSLayerGroup" transform="translate(2.909400, 2.436500)">
                <mask id="mask-2" sketch:name="Clip 2" fill="white">
                    <use xlink:href="#path-1"></use>
                </mask>
                <g id="Clip-2"></g>
                <path d="M6.8071,11.0879 L6.6611,11.2439 L5.6721,12.2989 C4.8051,13.2239 3.3991,13.2239 2.5331,12.2989 C1.6651,11.3739 1.6651,9.8739 2.5331,8.9489 L3.6591,7.7479 L3.8911,7.4999 L4.1171,7.2599 L4.1181,7.2589 L4.4931,6.8589 C4.8841,6.4419 5.3851,6.2129 5.8971,6.1719 C6.0041,6.1609 6.0971,6.1609 6.1761,6.1639 C6.3501,6.1719 6.4501,6.2009 6.4501,6.2009 L6.4501,6.2019 L6.4511,6.2019 C6.8831,6.2829 7.2981,6.5019 7.6321,6.8589 C7.9571,7.2049 8.1611,7.6329 8.2431,8.0809 L8.2481,8.1189 C8.6271,8.0859 8.9991,7.9159 9.2891,7.6059 L9.8871,6.9689 C9.6821,6.4159 9.3711,5.8979 8.9521,5.4499 C8.5341,5.0039 8.0471,4.6719 7.5301,4.4529 C7.4341,4.4129 7.3371,4.3769 7.2411,4.3449 C7.1591,4.3179 7.0771,4.2929 6.9951,4.2709 C6.9881,4.2699 6.9831,4.2679 6.9771,4.2669 C6.9621,4.2629 6.9481,4.2599 6.9321,4.2559 C6.0731,4.0449 5.1641,4.1249 4.3441,4.4979 C4.2431,4.5439 4.1431,4.5939 4.0441,4.6479 C4.0391,4.6499 4.0341,4.6529 4.0291,4.6559 C4.0121,4.6659 3.9961,4.6759 3.9811,4.6859 C3.9391,4.7089 3.8971,4.7339 3.8561,4.7599 L3.8551,4.7599 C3.5571,4.9469 3.2771,5.1779 3.0211,5.4509 L1.2291,7.3619 C-0.4099,9.1089 -0.4099,11.9419 1.2291,13.6899 C2.8671,15.4369 5.5221,15.4369 7.1611,13.6899 L8.9531,11.7769 C9.1081,11.6119 9.2481,11.4379 9.3731,11.2539 C9.4011,11.2149 9.4261,11.1739 9.4521,11.1329 C8.5861,11.3829 7.6661,11.3689 6.8071,11.0879 M12.9531,1.1839 C11.3151,-0.5621 8.6591,-0.5631 7.0221,1.1839 L5.2291,3.0959 C5.0751,3.2609 4.9341,3.4359 4.8081,3.6179 C4.7811,3.6579 4.7561,3.6989 4.7301,3.7399 C5.5961,3.4899 6.5151,3.5039 7.3741,3.7849 L7.5211,3.6289 L8.5091,2.5739 C9.3761,1.6499 10.7821,1.6499 11.6491,2.5739 C12.5161,3.4999 12.5161,4.9989 11.6491,5.9239 L10.5221,7.1259 L10.2901,7.3729 L10.0651,7.6129 L10.0651,7.6139 L9.6891,8.0149 C9.2971,8.4329 8.7961,8.6599 8.2851,8.7009 L8.2851,8.7019 L8.2841,8.7019 C8.1761,8.7119 8.0841,8.7129 8.0051,8.7089 C7.8321,8.7009 7.7311,8.6719 7.7311,8.6719 C7.2971,8.5899 6.8831,8.3709 6.5491,8.0149 C6.2231,7.6679 6.0201,7.2399 5.9391,6.7929 C5.9371,6.7789 5.9361,6.7679 5.9331,6.7539 C5.5531,6.7869 5.1821,6.9579 4.8911,7.2679 L4.2951,7.9039 C4.4991,8.4569 4.8091,8.9759 5.2291,9.4229 C5.6481,9.8689 6.1331,10.2009 6.6521,10.4199 C6.7461,10.4599 6.8441,10.4959 6.9421,10.5279 C7.0221,10.5559 7.1041,10.5809 7.1881,10.6029 C7.1941,10.6049 7.1991,10.6059 7.2031,10.6069 C7.2191,10.6099 7.2341,10.6129 7.2481,10.6169 C8.1081,10.8279 9.0161,10.7479 9.8381,10.3749 C9.9381,10.3299 10.0381,10.2799 10.1371,10.2259 C10.1421,10.2229 10.1471,10.2199 10.1531,10.2169 C10.1681,10.2069 10.1841,10.1969 10.2011,10.1879 C10.2431,10.1639 10.2841,10.1399 10.3251,10.1139 C10.3251,10.1129 10.3261,10.1129 10.3271,10.1129 C10.6231,9.9259 10.9051,9.6949 11.1611,9.4229 L12.9531,7.5109 C14.5901,5.7639 14.5901,2.9309 12.9531,1.1839" id="Fill-1" fill="#FDFDFD" sketch:type="MSShapeGroup" mask="url(#mask-2)"></path>
            </g>
        </g>
    </g>
</svg>