<?xml version="1.0" encoding="UTF-8" standalone="no"?>
<svg width="20px" height="20px" viewBox="0 0 20 20" version="1.1" xmlns="http://www.w3.org/2000/svg" xmlns:xlink="http://www.w3.org/1999/xlink" xmlns:sketch="http://www.bohemiancoding.com/sketch/ns">
    <!-- Generator: Sketch 3.0.4 (8054) - http://www.bohemiancoding.com/sketch -->
    <title>more</title>
    <desc>Created with Sketch.</desc>
    <defs></defs>
    <g id="Page-1" stroke="none" stroke-width="1" fill="none" fill-rule="evenodd" sketch:type="MSPage">
        <g id="more" sketch:type="MSArtboardGroup" fill="#010101">
            <path d="M4,8 C2.896,8 2,8.896 2,10 C2,11.104 2.896,12 4,12 C5.104,12 6,11.104 6,10 C6,8.896 5.104,8 4,8 M16,8 C14.896,8 14,8.896 14,10 C14,11.104 14.896,12 16,12 C17.104,12 18,11.104 18,10 C18,8.896 17.104,8 16,8 M10,8 C8.896,8 8,8.896 8,10 C8,11.104 8.896,12 10,12 C11.104,12 12,11.104 12,10 C12,8.896 11.104,8 10,8" id="Imported-Layers" sketch:type="MSShapeGroup"></path>
        </g>
    </g>
</svg>