<?xml version="1.0" encoding="UTF-8" standalone="no"?>
<svg width="32px" height="32px" viewBox="0 0 32 32" version="1.1" xmlns="http://www.w3.org/2000/svg" xmlns:xlink="http://www.w3.org/1999/xlink" xmlns:sketch="http://www.bohemiancoding.com/sketch/ns">
    <!-- Generator: Sketch 3.0.4 (8054) - http://www.bohemiancoding.com/sketch -->
    <title>non-ok 2</title>
    <desc>Created with Sketch.</desc>
    <defs></defs>
    <g id="Page-1" stroke="none" stroke-width="1" fill="none" fill-rule="evenodd" sketch:type="MSPage">
        <g id="non-ok-2" sketch:type="MSArtboardGroup" fill="#FDFDFD">
            <path d="M16,0 C7.164,0 0,7.164 0,16 C0,24.836 7.164,32 16,32 C24.836,32 32,24.836 32,16 C32,7.164 24.836,0 16,0 M16,30 C8.268,30 2,23.732 2,16 C2,8.268 8.268,2 16,2 C23.732,2 30,8.268 30,16 C30,23.732 23.732,30 16,30 M22.857,9.889 L22.171,9.152 C21.98,8.949 21.674,8.949 21.484,9.152 L15.999,15.031 L10.514,9.155 C10.324,8.951 10.018,8.951 9.827,9.155 L9.143,9.891 C8.952,10.094 8.952,10.423 9.143,10.626 L14.628,16.502 L9.143,22.379 C8.952,22.582 8.952,22.91 9.143,23.113 L9.827,23.848 C10.018,24.051 10.324,24.051 10.514,23.848 L15.999,17.969 L21.484,23.846 C21.674,24.049 21.98,24.049 22.171,23.846 L22.857,23.112 C23.047,22.908 23.047,22.58 22.857,22.376 L17.371,16.5 L22.855,10.624 C23.045,10.42 23.045,10.092 22.857,9.889" id="Imported-Layers" sketch:type="MSShapeGroup"></path>
        </g>
    </g>
</svg>