<?xml version="1.0" encoding="UTF-8" standalone="no"?>
<svg width="20px" height="20px" viewBox="0 0 20 20" version="1.1" xmlns="http://www.w3.org/2000/svg" xmlns:xlink="http://www.w3.org/1999/xlink" xmlns:sketch="http://www.bohemiancoding.com/sketch/ns">
    <!-- Generator: Sketch 3.0.4 (8054) - http://www.bohemiancoding.com/sketch -->
    <title>numbered-list 2</title>
    <desc>Created with Sketch.</desc>
    <defs></defs>
    <g id="Page-1" stroke="none" stroke-width="1" fill="none" fill-rule="evenodd" sketch:type="MSPage">
        <g id="numbered-list-2" sketch:type="MSArtboardGroup" fill="#FDFDFD">
            <path d="M8,5.001 L18,5.001 L18,3 L8,3 L8,5.001 Z M4,3.001 L4,4.001 L5,4.001 L5,8.001 L6,8.001 L6,3.001 L4,3.001 Z M3,5.001 L4,5.001 L4,4.001 L3,4.001 L3,5.001 Z M8,9.001 L18,9.001 L18,7.001 L8,7.001 L8,9.001 Z M8,13.001 L18,13.001 L18,11 L8,11 L8,13.001 Z M3,11.001 L3,12.001 L5,12.001 L5,13.001 L3,13.001 L3,16.001 L6,16.001 L6,15.001 L4,15.001 L4,14.001 L6,14.001 L6,11.001 L3,11.001 Z M8,17.001 L18,17.001 L18,15.001 L8,15.001 L8,17.001 Z" id="Imported-Layers" sketch:type="MSShapeGroup"></path>
        </g>
    </g>
</svg>