<?xml version="1.0" encoding="UTF-8" standalone="no"?>
<svg width="32px" height="32px" viewBox="0 0 32 32" version="1.1" xmlns="http://www.w3.org/2000/svg" xmlns:xlink="http://www.w3.org/1999/xlink" xmlns:sketch="http://www.bohemiancoding.com/sketch/ns">
    <!-- Generator: Sketch 3.0.4 (8054) - http://www.bohemiancoding.com/sketch -->
    <title>ok 2</title>
    <desc>Created with Sketch.</desc>
    <defs></defs>
    <g id="Page-1" stroke="none" stroke-width="1" fill="none" fill-rule="evenodd" sketch:type="MSPage">
        <g id="ok-2" sketch:type="MSArtboardGroup" fill="#FDFDFD">
            <path d="M16,0 C7.164,0 0,7.164 0,16 C0,24.836 7.164,32 16,32 C24.836,32 32,24.836 32,16 C32,7.164 24.836,0 16,0 L16,0 Z M16,30 C8.268,30 2,23.732 2,16 C2,8.268 8.268,2 16,2 C23.732,2 30,8.268 30,16 C30,23.732 23.732,30 16,30 L16,30 Z M14.548,19.792 L10.204,14.88 L8,16.356 L13.141,21.524 L14.609,23 L16.078,21.524 L24,12.426 L22.314,11 L14.548,19.792 Z" id="Imported-Layers" sketch:type="MSShapeGroup"></path>
        </g>
    </g>
</svg>