<?xml version="1.0" encoding="UTF-8" standalone="no"?>
<svg width="20px" height="20px" viewBox="0 0 20 20" version="1.1" xmlns="http://www.w3.org/2000/svg" xmlns:xlink="http://www.w3.org/1999/xlink" xmlns:sketch="http://www.bohemiancoding.com/sketch/ns">
    <!-- Generator: Sketch 3.0.4 (8054) - http://www.bohemiancoding.com/sketch -->
    <title>quote</title>
    <desc>Created with Sketch.</desc>
    <defs>
        <path id="path-1" d="M0,0 L16,0 L16,13 L0,13"></path>
    </defs>
    <g id="Page-1" stroke="none" stroke-width="1" fill="none" fill-rule="evenodd" sketch:type="MSPage">
        <g id="quote" sketch:type="MSArtboardGroup">
            <g id="Imported-Layers" sketch:type="MSLayerGroup" transform="translate(2.000000, 3.000000)">
                <mask id="mask-2" sketch:name="Clip 2" fill="white">
                    <use xlink:href="#path-1"></use>
                </mask>
                <g id="Clip-2"></g>
                <path d="M9.209,8.6279 C9.209,11.4459 10.879,12.9999 12.777,12.9999 C14.504,12.9999 15.885,11.6189 15.885,9.9509 C15.885,8.2249 14.676,7.0179 13.064,7.0179 C12.777,7.0179 12.375,7.0739 12.316,7.0739 C12.547,5.2339 14.158,2.9339 16,1.7259 L13.871,-0.0001 C11.223,1.8979 9.209,5.1189 9.209,8.6279 M0,8.6279 C0,11.4459 1.67,12.9999 3.568,12.9999 C5.295,12.9999 6.619,11.6189 6.619,9.9509 C6.619,8.2249 5.468,7.0179 3.856,7.0179 C3.568,7.0179 3.166,7.0739 3.107,7.0739 C3.281,5.2339 4.949,2.9339 6.791,1.7259 L4.662,-0.0001 C2.015,1.8979 0,5.1189 0,8.6279" id="Fill-1" fill="#000000" sketch:type="MSShapeGroup" mask="url(#mask-2)"></path>
            </g>
        </g>
    </g>
</svg>