<?xml version="1.0" encoding="UTF-8" standalone="no"?>
<svg width="20px" height="20px" viewBox="0 0 20 20" version="1.1" xmlns="http://www.w3.org/2000/svg" xmlns:xlink="http://www.w3.org/1999/xlink" xmlns:sketch="http://www.bohemiancoding.com/sketch/ns">
    <!-- Generator: Sketch 3.0.4 (8054) - http://www.bohemiancoding.com/sketch -->
    <title>remove 2</title>
    <desc>Created with Sketch.</desc>
    <defs></defs>
    <g id="Page-1" stroke="none" stroke-width="1" fill="none" fill-rule="evenodd" sketch:type="MSPage">
        <g id="remove-2" sketch:type="MSArtboardGroup" fill="#FDFDFD">
            <path d="M12,5 L9,5 L9,4 L12,4 L12,5 Z M16.5,5 L14,5 L14,3 C14,2.448 13.553,2 13,2 L8,2 C7.447,2 7,2.448 7,3 L7,5 L4.5,5 C4.224,5 4,5.225 4,5.5 L4,6.5 C4,6.776 4.224,7 4.5,7 L16.5,7 C16.776,7 17,6.776 17,6.5 L17,5.5 C17,5.225 16.776,5 16.5,5 L16.5,5 Z M14,16 L13,16 L13,10 L14,10 L14,16 Z M11,16 L10,16 L10,10 L11,10 L11,16 Z M8,16 L7,16 L7,10 L8,10 L8,16 Z M15,8 L6,8 C5.447,8 5,8.448 5,9 L5,17 C5,17.553 5.447,18 6,18 L15,18 C15.553,18 16,17.553 16,17 L16,9 C16,8.448 15.553,8 15,8 L15,8 Z" id="Imported-Layers" sketch:type="MSShapeGroup"></path>
        </g>
    </g>
</svg>