<?xml version="1.0" encoding="UTF-8" standalone="no"?>
<svg width="20px" height="20px" viewBox="0 0 20 20" version="1.1" xmlns="http://www.w3.org/2000/svg" xmlns:xlink="http://www.w3.org/1999/xlink" xmlns:sketch="http://www.bohemiancoding.com/sketch/ns">
    <!-- Generator: Sketch 3.0.4 (8054) - http://www.bohemiancoding.com/sketch -->
    <title>settings</title>
    <desc>Created with Sketch.</desc>
    <defs>
        <path id="path-1" d="M0,0 L15.001,0 L15.001,16 L0,16"></path>
    </defs>
    <g id="Page-1" stroke="none" stroke-width="1" fill="none" fill-rule="evenodd" sketch:type="MSPage">
        <g id="settings" sketch:type="MSArtboardGroup">
            <g id="Imported-Layers" sketch:type="MSLayerGroup" transform="translate(2.499500, 2.000000)">
                <mask id="mask-2" sketch:name="Clip 2" fill="white">
                    <use xlink:href="#path-1"></use>
                </mask>
                <g id="Clip-2"></g>
                <path d="M7.5005,6.4004 C6.6715,6.4004 6.0005,7.1164 6.0005,8.0004 C6.0005,8.8824 6.6715,9.5994 7.5005,9.5994 C8.3295,9.5994 9.0005,8.8824 9.0005,8.0004 C9.0005,7.1164 8.3295,6.4004 7.5005,6.4004 M7.5005,11.5994 C5.6365,11.5994 4.1255,9.9884 4.1255,8.0004 C4.1255,6.0114 5.6365,4.3994 7.5005,4.3994 C9.3645,4.3994 10.8755,6.0114 10.8755,8.0004 C10.8755,9.9884 9.3645,11.5994 7.5005,11.5994 M14.3935,6.7994 L13.7745,6.7994 C13.6105,5.8164 13.2385,4.9134 12.7235,4.1264 L13.0455,3.7814 C13.4125,3.3904 13.4125,2.7574 13.0455,2.3674 L12.7805,2.0844 C12.4155,1.6944 11.8215,1.6944 11.4555,2.0844 L11.1305,2.4304 C10.3925,1.8824 9.5465,1.4874 8.6255,1.3124 L8.6255,0.5874 C8.6255,0.2624 8.3625,0.0004 8.0385,0.0004 L6.9625,0.0004 C6.6385,0.0004 6.3755,0.2624 6.3755,0.5874 L6.3755,1.3124 C5.4545,1.4874 4.6085,1.8824 3.8705,2.4304 L3.5455,2.0844 C3.1795,1.6944 2.5855,1.6944 2.2195,2.0844 L1.9545,2.3674 C1.5885,2.7574 1.5885,3.3904 1.9545,3.7814 L2.2775,4.1264 C1.7625,4.9144 1.3915,5.8164 1.2265,6.7994 L0.6065,6.7994 C0.2715,6.7994 0.0005,7.0714 0.0005,7.4064 L0.0005,8.5934 C0.0005,8.9284 0.2715,9.2004 0.6065,9.2004 L1.2265,9.2004 C1.3915,10.1834 1.7625,11.0864 2.2775,11.8744 L1.9545,12.2184 C1.5885,12.6094 1.5885,13.2424 1.9545,13.6324 L2.2195,13.9154 C2.5855,14.3054 3.1795,14.3054 3.5455,13.9154 L3.8695,13.5694 C4.6075,14.1174 5.4545,14.5124 6.3755,14.6874 L6.3755,15.4124 C6.3755,15.7364 6.6385,16.0004 6.9625,16.0004 L8.0385,16.0004 C8.3625,16.0004 8.6255,15.7364 8.6255,15.4124 L8.6255,14.6874 C9.5465,14.5124 10.3925,14.1174 11.1305,13.5694 L11.4555,13.9154 C11.8215,14.3054 12.4155,14.3054 12.7805,13.9154 L13.0455,13.6324 C13.4125,13.2424 13.4125,12.6094 13.0455,12.2184 L12.7235,11.8744 C13.2385,11.0874 13.6105,10.1834 13.7745,9.2004 L14.3935,9.2004 C14.7295,9.2004 15.0005,8.9284 15.0005,8.5934 L15.0005,7.4064 C15.0005,7.0714 14.7295,6.7994 14.3935,6.7994" id="Fill-1" fill="#000000" sketch:type="MSShapeGroup" mask="url(#mask-2)"></path>
            </g>
        </g>
    </g>
</svg>