<?xml version="1.0" encoding="UTF-8" standalone="no"?>
<svg width="20px" height="20px" viewBox="0 0 20 20" version="1.1" xmlns="http://www.w3.org/2000/svg" xmlns:xlink="http://www.w3.org/1999/xlink" xmlns:sketch="http://www.bohemiancoding.com/sketch/ns">
    <!-- Generator: Sketch 3.0.4 (8054) - http://www.bohemiancoding.com/sketch -->
    <title>stroke</title>
    <desc>Created with Sketch.</desc>
    <defs>
        <path id="path-1" d="M0,0 L9,0 L9,13 L0,13 L0,0 Z"></path>
    </defs>
    <g id="Page-1" stroke="none" stroke-width="1" fill="none" fill-rule="evenodd" sketch:type="MSPage">
        <g id="stroke" sketch:type="MSArtboardGroup">
            <g id="Imported-Layers" sketch:type="MSLayerGroup" transform="translate(6.000000, 4.000000)">
                <mask id="mask-2" sketch:name="Clip 2" fill="white">
                    <use xlink:href="#path-1"></use>
                </mask>
                <g id="Clip-2"></g>
                <path d="M6.8301,10.0459 C6.8301,10.3859 6.7901,10.6869 6.7091,10.9469 C6.6281,11.2079 6.5041,11.4359 6.3371,11.6289 C6.1701,11.8219 5.9511,11.9729 5.6831,12.0779 C5.4141,12.1839 5.1001,12.2359 4.7391,12.2359 C4.2591,12.2359 3.8371,12.1339 3.4741,11.9289 C3.1111,11.7239 2.7941,11.4479 2.5221,11.1039 C2.2351,10.7339 2.0041,10.3379 1.8291,9.9129 C1.6981,9.5949 1.5831,9.2379 1.4771,8.8619 L6.5421,8.8619 C6.7211,9.2339 6.8301,9.6249 6.8301,10.0459 L6.8301,10.0459 Z M9.0001,7.9759 L8.1991,7.9759 C8.0871,7.6329 7.9151,7.3169 7.6841,7.0269 C7.4701,6.7699 7.2181,6.5439 6.9291,6.3509 C6.6391,6.1569 6.3371,5.9839 6.0231,5.8329 C5.6791,5.6629 5.3221,5.5029 4.9541,5.3539 C4.5861,5.2039 4.2111,5.0269 3.8301,4.8219 C3.4021,4.5939 3.0751,4.3029 2.8511,3.9479 C2.6271,3.5939 2.5151,3.1479 2.5151,2.6089 C2.5151,2.0939 2.6891,1.6569 3.0391,1.2999 C3.3891,0.9429 3.8111,0.7649 4.3091,0.7649 C4.7781,0.7649 5.1751,0.8649 5.4991,1.0669 C5.8221,1.2699 6.0971,1.5399 6.3211,1.8799 C6.5511,2.2319 6.7371,2.6229 6.8811,3.0569 C7.0241,3.4899 7.1541,3.9439 7.2681,4.4179 L7.9031,4.4179 L7.8411,0.2809 L7.2141,0.2809 L6.8931,0.8789 C6.5591,0.6449 6.1891,0.4399 5.7841,0.2639 C5.3801,0.0879 4.9221,-0.0001 4.4101,-0.0001 C3.9611,-0.0001 3.5301,0.0869 3.1171,0.2599 C2.7051,0.4319 2.3481,0.6709 2.0441,0.9749 C1.7261,1.2969 1.4801,1.6619 1.3091,2.0719 C1.1361,2.4829 1.0501,2.9239 1.0501,3.3989 C1.0501,4.2239 1.2241,4.8929 1.5701,5.4049 C1.9181,5.9169 2.4041,6.3309 3.0311,6.6479 C3.3501,6.8109 3.7281,6.9839 4.1671,7.1679 C4.6051,7.3519 4.9951,7.5199 5.3341,7.6709 C5.5171,7.7529 5.6661,7.8649 5.8161,7.9759 L0.0001,7.9759 L0.0001,8.8619 L0.7461,8.8619 L0.8461,12.7539 L1.4731,12.7539 L1.8091,12.1129 C2.1701,12.3589 2.5981,12.5679 3.0941,12.7409 C3.5901,12.9139 4.0861,12.9999 4.5821,12.9999 C5.6581,12.9999 6.5591,12.6429 7.2841,11.9289 C8.0101,11.2149 8.3731,10.3069 8.3731,9.2049 C8.3731,9.0829 8.3591,8.9769 8.3511,8.8619 L9.0001,8.8619 L9.0001,7.9759 Z" id="Fill-1" fill="#000000" sketch:type="MSShapeGroup" mask="url(#mask-2)"></path>
            </g>
        </g>
    </g>
</svg>