<?xml version="1.0" encoding="UTF-8" standalone="no"?>
<svg width="20px" height="20px" viewBox="0 0 20 20" version="1.1" xmlns="http://www.w3.org/2000/svg" xmlns:xlink="http://www.w3.org/1999/xlink" xmlns:sketch="http://www.bohemiancoding.com/sketch/ns">
    <!-- Generator: Sketch 3.0.4 (8054) - http://www.bohemiancoding.com/sketch -->
    <title>underline</title>
    <desc>Created with Sketch.</desc>
    <defs></defs>
    <g id="Page-1" stroke="none" stroke-width="1" fill="none" fill-rule="evenodd" sketch:type="MSPage">
        <g id="underline" sketch:type="MSArtboardGroup" fill="#000000">
            <path d="M4,17 L17,17 L17,16 L4,16 L4,17 Z M5.965,3.787 C6.141,3.889 6.258,3.998 6.315,4.117 C6.373,4.235 6.402,4.383 6.402,4.56 L6.402,10.911 C6.402,11.315 6.488,11.703 6.658,12.073 C6.83,12.444 7.084,12.773 7.42,13.062 C7.762,13.349 8.184,13.577 8.687,13.746 C9.189,13.916 9.762,14 10.406,14 C10.808,14 11.229,13.94 11.668,13.822 C12.108,13.703 12.527,13.508 12.924,13.235 C13.326,12.953 13.65,12.592 13.896,12.153 C14.143,11.714 14.266,11.196 14.266,10.602 L14.266,5.93 C14.266,5.405 14.299,4.961 14.364,4.598 C14.43,4.234 14.547,3.994 14.719,3.879 C14.889,3.768 15.11,3.684 15.382,3.629 C15.653,3.573 15.859,3.543 16,3.538 L16,3 L11.627,3 L11.627,3.538 C11.788,3.548 12.021,3.588 12.324,3.658 C12.629,3.729 12.869,3.827 13.045,3.953 C13.2,4.064 13.318,4.298 13.398,4.653 C13.479,5.009 13.52,5.467 13.52,6.026 L13.52,10.429 C13.52,10.731 13.477,11.031 13.391,11.329 C13.306,11.627 13.16,11.911 12.954,12.184 C12.738,12.472 12.442,12.703 12.068,12.88 C11.693,13.057 11.23,13.145 10.678,13.145 C10.089,13.145 9.627,13.057 9.29,12.88 C8.953,12.703 8.687,12.477 8.49,12.199 C8.305,11.927 8.18,11.633 8.117,11.318 C8.055,11.003 8.023,10.701 8.023,10.414 L8.023,4.483 C8.023,4.316 8.053,4.163 8.11,4.021 C8.168,3.881 8.282,3.779 8.453,3.719 C8.554,3.684 8.711,3.646 8.924,3.605 C9.138,3.565 9.314,3.543 9.456,3.538 L9.456,3 L5,3 L5,3.538 C5.125,3.548 5.287,3.574 5.482,3.617 C5.679,3.66 5.84,3.717 5.965,3.787 L5.965,3.787 Z" id="Imported-Layers" sketch:type="MSShapeGroup"></path>
        </g>
    </g>
</svg>